<svg width="125" height="49" viewBox="0 0 125 49" fill="none" xmlns="http://www.w3.org/2000/svg">
<path d="M0 13.96H9.78998L19.01 33.62L28.37 13.96H37.73L20.09 48.88H17.5L0 13.96Z" fill="white"/>
<path d="M112.73 48.89H102.94L93.72 29.23L84.36 48.89H75L92.64 13.97H95.23L112.73 48.89Z" fill="white"/>
<path d="M38.95 5.18001C38.95 2.30001 41.25 0.140015 44.21 0.140015C47.23 0.140015 49.5399 2.30001 49.5399 5.18001C49.5399 8.20001 47.31 10.36 44.21 10.36C41.18 10.36 38.95 8.20001 38.95 5.18001ZM39.74 13.96H48.74V48.74H39.74V13.96Z" fill="white"/>
<path d="M54.5 35.49V6.53998H63.5V13.96H73.37V22.53H63.5V34.27C63.5 38.16 65.3 40.17 69.26 40.17H74.52L72 48.74H67.82C58.97 48.74 54.5 43.49 54.5 35.49Z" fill="white"/>
<path d="M115.18 0H124.18V48.75H115.18V0Z" fill="white"/>
</svg>
